<?xml version="1.0" encoding="utf-8"?>
<!-- Generator: Adobe Illustrator 19.1.1, SVG Export Plug-In . SVG Version: 6.00 Build 0)  -->
<svg version="1.1" id="Capa_1" xmlns="http://www.w3.org/2000/svg" xmlns:xlink="http://www.w3.org/1999/xlink" x="0px" y="0px"
	 viewBox="-60 183.3 474.6 474.6" style="enable-background:new -60 183.3 474.6 474.6;" xml:space="preserve">
<style type="text/css">
	.st0{fill:#010002;}
	.st1{fill:none;stroke:#010002;stroke-width:35;stroke-linecap:round;stroke-miterlimit:10;}
	.st2{fill:none;stroke:#010002;stroke-width:18;stroke-linecap:round;stroke-miterlimit:10;}
</style>
<path class="st0" d="M176.6,558l94-94H86.5C86.5,464,174.6,560,176.6,558z"/>
<g>
	<g>
		<g>
			<path class="st0" d="M177.3,657.9c131.1,0,237.3-106.2,237.3-237.3c0-131.1-106.3-237.3-237.3-237.3S-60,289.5-60,420.6
				S46.2,657.9,177.3,657.9z M177.3,215c113.3,0,205.5,92.2,205.5,205.6s-92.2,205.5-205.5,205.5S-28.2,533.9-28.2,420.6
				C-28.2,307.3,64,215,177.3,215z"/>
			<path class="st0" d="M167.1,571.4c3.1,3.1,7.2,4.6,11.3,4.6s8.2-1.5,11.3-4.6l103.1-103.1c6.2-6.2,6.2-16.3,0-22.5
				c-6.2-6.2-16.3-6.2-22.5,0l-91.9,91.9l-91.9-91.9c-6.2-6.2-16.3-6.2-22.5,0c-6.2,6.2-6.2,16.3,0,22.5L167.1,571.4z"/>
		</g>
	</g>
</g>
<line class="st1" x1="278.6" y1="459" x2="77.6" y2="459"/>
<line class="st2" x1="278.6" y1="406" x2="77.6" y2="406"/>
<line class="st2" x1="278.6" y1="360" x2="77.6" y2="360"/>
<line class="st2" x1="278.6" y1="314" x2="77.6" y2="314"/>
</svg>
