<?xml version="1.0" encoding="utf-8"?>
<!-- Generator: Adobe Illustrator 19.1.1, SVG Export Plug-In . SVG Version: 6.00 Build 0)  -->
<svg version="1.1" id="Capa_1" xmlns="http://www.w3.org/2000/svg" xmlns:xlink="http://www.w3.org/1999/xlink" x="0px" y="0px"
	 viewBox="-60 183.3 474.6 474.6" style="enable-background:new -60 183.3 474.6 474.6;" xml:space="preserve">
<style type="text/css">
	.st0{fill:#010002;}
	.st1{fill:none;stroke:#010002;stroke-width:35;stroke-linecap:round;stroke-miterlimit:10;}
	.st2{fill:none;stroke:#010002;stroke-width:18;stroke-linecap:round;stroke-miterlimit:10;}
</style>
<path class="st0" d="M178,283.1l-94,94h184.2C268.2,377.1,180,281.1,178,283.1z"/>
<g>
	<g>
		<g>
			<path class="st0" d="M177.3,183.3C46.2,183.3-60,289.5-60,420.6S46.3,657.9,177.3,657.9s237.3-106.2,237.3-237.3
				S308.4,183.3,177.3,183.3z M177.3,626.1C64,626.1-28.2,533.9-28.2,420.5S64,215,177.3,215s205.5,92.2,205.5,205.5
				S290.7,626.1,177.3,626.1z"/>
			<path class="st0" d="M187.6,269.8c-3.1-3.1-7.2-4.6-11.3-4.6s-8.2,1.5-11.3,4.6L61.9,372.9c-6.2,6.2-6.2,16.3,0,22.5
				c6.2,6.2,16.3,6.2,22.5,0l91.9-91.9l91.9,91.9c6.2,6.2,16.3,6.2,22.5,0c6.2-6.2,6.2-16.3,0-22.5L187.6,269.8z"/>
		</g>
	</g>
</g>
<line class="st1" x1="76" y1="382.1" x2="277" y2="382.1"/>
<line class="st2" x1="76" y1="435.1" x2="277" y2="435.1"/>
<line class="st2" x1="76" y1="481.1" x2="277" y2="481.1"/>
<line class="st2" x1="76" y1="527.1" x2="277" y2="527.1"/>
</svg>
