<?xml version="1.0" encoding="utf-8"?>
<!-- Generator: Adobe Illustrator 19.1.1, SVG Export Plug-In . SVG Version: 6.00 Build 0)  -->
<svg version="1.1" xmlns="http://www.w3.org/2000/svg" xmlns:xlink="http://www.w3.org/1999/xlink" x="0px" y="0px"
	 viewBox="-60 183.3 474.6 474.6" style="enable-background:new -60 183.3 474.6 474.6;" xml:space="preserve">
<style type="text/css">
	.st0{fill:#010002;}
	.st1{fill:none;stroke:#010002;stroke-width:35;stroke-linecap:round;stroke-miterlimit:10;}
	.st2{fill:none;stroke:#010002;stroke-width:18;stroke-linecap:round;stroke-miterlimit:10;}
	.st3{fill:none;stroke:#FF0037;stroke-width:23.1788;stroke-linecap:round;stroke-linejoin:round;stroke-miterlimit:10;}
	.st4{fill:none;stroke:#FF0037;stroke-width:21.5586;stroke-linecap:round;stroke-linejoin:round;stroke-miterlimit:10;}
</style>
<g id="Capa_1">
	<path class="st0" d="M181,283.1l-94,94h184.2C271.2,377.1,183,281.1,181,283.1z"/>
	<g>
		<g>
			<g>
				<path class="st0" d="M180.3,183.3C49.2,183.3-57,289.5-57,420.6S49.3,657.9,180.3,657.9s237.3-106.2,237.3-237.3
					S311.4,183.3,180.3,183.3z M180.3,626.1C67,626.1-25.2,533.9-25.2,420.5S67,215,180.3,215s205.5,92.2,205.5,205.5
					S293.7,626.1,180.3,626.1z"/>
				<path class="st0" d="M190.6,269.8c-3.1-3.1-7.2-4.6-11.3-4.6s-8.2,1.5-11.3,4.6L64.9,372.9c-6.2,6.2-6.2,16.3,0,22.5
					s16.3,6.2,22.5,0l91.9-91.9l91.9,91.9c6.2,6.2,16.3,6.2,22.5,0s6.2-16.3,0-22.5L190.6,269.8z"/>
			</g>
		</g>
	</g>
	<line class="st1" x1="79" y1="382.1" x2="280" y2="382.1"/>
	<line class="st2" x1="79" y1="435.1" x2="280" y2="435.1"/>
	<line class="st2" x1="79" y1="481.1" x2="280" y2="481.1"/>
	<line class="st2" x1="79" y1="527.1" x2="280" y2="527.1"/>
</g>
<g id="Info_circled">
	<g>
		<g>
			<line class="st3" x1="0.5" y1="217.4" x2="370.3" y2="612.1"/>
			<line class="st3" x1="13" y1="212.2" x2="382.9" y2="606.9"/>
			<line class="st3" x1="30.8" y1="212.2" x2="383.6" y2="586.3"/>
			<line class="st3" x1="-1.2" y1="238.8" x2="359.7" y2="622.8"/>
		</g>
		<g>
			<line class="st4" x1="308.9" y1="205.6" x2="6.2" y2="607.4"/>
			<line class="st4" x1="315.7" y1="216.2" x2="13.1" y2="618.1"/>
			<line class="st4" x1="318.6" y1="232.5" x2="32" y2="615.5"/>
			<line class="st4" x1="289" y1="207.5" x2="-5.2" y2="599.4"/>
		</g>
	</g>
</g>
</svg>
