<?xml version="1.0" encoding="UTF-8" standalone="no"?>
<!-- Generator: Adobe Illustrator 18.1.1, SVG Export Plug-In . SVG Version: 6.00 Build 0)  -->

<svg
   xmlns:dc="http://purl.org/dc/elements/1.1/"
   xmlns:cc="http://creativecommons.org/ns#"
   xmlns:rdf="http://www.w3.org/1999/02/22-rdf-syntax-ns#"
   xmlns:svg="http://www.w3.org/2000/svg"
   xmlns="http://www.w3.org/2000/svg"
   xmlns:sodipodi="http://sodipodi.sourceforge.net/DTD/sodipodi-0.dtd"
   xmlns:inkscape="http://www.inkscape.org/namespaces/inkscape"
   version="1.1"
   id="Info_circled"
   x="0px"
   y="0px"
   viewBox="0 0 20 20"
   enable-background="new 0 0 20 20"
   xml:space="preserve"
   inkscape:version="0.91 r13725"
   sodipodi:docname="info-with-circle.svg"><metadata
     id="metadata9"><rdf:RDF><cc:Work
         rdf:about=""><dc:format>image/svg+xml</dc:format><dc:type
           rdf:resource="http://purl.org/dc/dcmitype/StillImage" /><dc:title></dc:title></cc:Work></rdf:RDF></metadata><defs
     id="defs7" /><sodipodi:namedview
     pagecolor="#ffffff"
     bordercolor="#666666"
     borderopacity="1"
     objecttolerance="10"
     gridtolerance="10"
     guidetolerance="10"
     inkscape:pageopacity="0"
     inkscape:pageshadow="2"
     inkscape:window-width="1366"
     inkscape:window-height="712"
     id="namedview5"
     showgrid="false"
     inkscape:zoom="11.8"
     inkscape:cx="10"
     inkscape:cy="20.805085"
     inkscape:window-x="0"
     inkscape:window-y="0"
     inkscape:window-maximized="1"
     inkscape:current-layer="Info_circled" /><path
     fill="#FFFFFF"
     d="M10,0.4c-5.303,0-9.601,4.298-9.601,9.6c0,5.303,4.298,9.601,9.601,9.601c5.301,0,9.6-4.298,9.6-9.601  C19.6,4.698,15.301,0.4,10,0.4z M10.896,3.866c0.936,0,1.211,0.543,1.211,1.164c0,0.775-0.62,1.492-1.679,1.492  c-0.886,0-1.308-0.445-1.282-1.182C9.146,4.719,9.665,3.866,10.896,3.866z M8.498,15.75c-0.64,0-1.107-0.389-0.66-2.094l0.733-3.025  c0.127-0.484,0.148-0.678,0-0.678c-0.191,0-1.022,0.334-1.512,0.664L6.74,10.094c1.555-1.299,3.343-2.061,4.108-2.061  c0.64,0,0.746,0.756,0.427,1.92l-0.84,3.18c-0.149,0.562-0.085,0.756,0.064,0.756c0.192,0,0.82-0.232,1.438-0.719l0.362,0.486  C10.786,15.168,9.137,15.75,8.498,15.75z"
     id="path3"
     style="fill:#ff0000" /></svg>