<?xml version="1.0" encoding="utf-8"?>
<!-- Generator: Adobe Illustrator 19.1.1, SVG Export Plug-In . SVG Version: 6.00 Build 0)  -->
<svg version="1.1"
	 id="Info_circled" xmlns:dc="http://purl.org/dc/elements/1.1/" xmlns:svg="http://www.w3.org/2000/svg" xmlns:cc="http://creativecommons.org/ns#" xmlns:sodipodi="http://sodipodi.sourceforge.net/DTD/sodipodi-0.dtd" xmlns:rdf="http://www.w3.org/1999/02/22-rdf-syntax-ns#" xmlns:inkscape="http://www.inkscape.org/namespaces/inkscape" sodipodi:docname="info-with-circle.svg" inkscape:version="0.91 r13725"
	 xmlns="http://www.w3.org/2000/svg" xmlns:xlink="http://www.w3.org/1999/xlink" x="0px" y="0px" viewBox="-287 410.9 20 20"
	 style="enable-background:new -287 410.9 20 20;" xml:space="preserve">
<style type="text/css">
	.st0{fill:#B90021;}
</style>
<sodipodi:namedview  id="namedview5" guidetolerance="10" borderopacity="1" showgrid="false" inkscape:cy="20.805085" inkscape:cx="10" pagecolor="#ffffff" gridtolerance="10" bordercolor="#666666" objecttolerance="10" inkscape:zoom="11.8" inkscape:window-width="1366" inkscape:window-y="0" inkscape:current-layer="Info_circled" inkscape:window-x="0" inkscape:window-height="712" inkscape:pageopacity="0" inkscape:pageshadow="2" inkscape:window-maximized="1">
	</sodipodi:namedview>
<path id="path3" class="st0" d="M-277,411.3c-5.3,0-9.6,4.3-9.6,9.6c0,5.3,4.3,9.6,9.6,9.6c5.3,0,9.6-4.3,9.6-9.6
	C-267.4,415.6-271.7,411.3-277,411.3z M-276.1,414.8c0.9,0,1.2,0.5,1.2,1.2c0,0.8-0.6,1.5-1.7,1.5c-0.9,0-1.3-0.4-1.3-1.2
	C-277.9,415.6-277.3,414.8-276.1,414.8z M-278.5,426.6c-0.6,0-1.1-0.4-0.7-2.1l0.7-3c0.1-0.5,0.1-0.7,0-0.7c-0.2,0-1,0.3-1.5,0.7
	l-0.3-0.5c1.6-1.3,3.3-2.1,4.1-2.1c0.6,0,0.7,0.8,0.4,1.9l-0.8,3.2c-0.1,0.6-0.1,0.8,0.1,0.8c0.2,0,0.8-0.2,1.4-0.7l0.4,0.5
	C-276.2,426.1-277.9,426.6-278.5,426.6z"/>
</svg>
